<svg version="1" xmlns="http://www.w3.org/2000/svg" width="193.333" height="193.333" viewBox="0 0 145.000000 145.000000"><path d="M39.7 2.1c-.7.4-3.2 1-5.7 1.4-2.4.4-5.3 1.2-6.5 1.8-1.1.5-2.7 1.3-3.5 1.7-1.9.9-1.8 13.3 0 15.5.7.8 1 1.5.6 1.5-.3 0 .4 1.8 1.5 4 2.4 4.5 11.2 14 13.1 14 .7 0-.1.9-1.9 2-4.5 2.7-8.2 8.7-9.6 15.8-.9 4.2-2.1 6.8-4.1 8.9-7.2 7-8.6 17.4-3.6 26.8 1.6 3.1 4.1 9.2 5.4 13.5 1.3 4.4 3.4 9.3 4.6 11.1 2.3 3.1 11.8 9.8 20.1 14 2.4 1.2 5.7 3.3 7.3 4.6 4.3 3.6 9.2 5.3 15.3 5.3 6.4 0 10.7-1.6 15.5-5.9 2-1.7 3.9-3.1 4.2-3.1 1.5 0 17.4-9.7 20.4-12.4 4.5-4.1 5.9-7.1 7.1-14.6.6-3.4 2.3-8.9 3.9-12.3 4-8.3 4.4-10.7 3.1-16.6-.8-3.7-2.3-6.4-5.5-10-2.4-2.7-4.4-5.5-4.4-6.3 0-4.8-3.5-12.3-7.5-16.4-2.5-2.4-3.8-4.4-3.1-4.4 2.1 0 11.4-9.7 13.2-13.8.9-2 2.1-4.7 2.6-5.9 1.7-3.6 1.6-14.4-.2-15.4-3.8-2-13.9-4.6-20-5.2-4.9-.5-15.2 1.3-17.1 2.9-.8.8-2.3 1.4-3.2 1.4-1.8 0-7.7 7.4-7.7 9.7 0 2.5-1.5 1.2-4.5-4-1.7-3-3.8-5.3-5-5.5-1.1-.2-2.7-1-3.5-1.7-2.6-2.2-18.4-4-21.3-2.4zM46 7c1.3.7 2.1.7 2.5 0 .5-.8 1.1-.7 2.1.1.7.6 2 .9 2.8.6.7-.3 1.9 0 2.5.6.9.9 1.4.9 2-.1.6-1 1.2-.6 2.6 1.4 1.2 1.9 1.9 2.3 2.5 1.4 1.8-3 7.4 9.6 6 13.6-1.7 4.6-3.5 4.8-8.8.9C55.1 21.9 41.1 15 38.8 15c-.7 0 1.6 1.6 5.2 3.6 8 4.5 18 12.1 18 13.7 0 2.8-3.4 5.7-8.2 7.2-5.9 1.7-8.2 1.9-7.4.6.4-.5-.7-1.2-2.4-1.6-1.6-.4-3-1.1-3-1.6s-1.1-1.1-2.5-1.5c-1.4-.3-2.3-1-2-1.5.3-.4-.4-1.3-1.5-1.9-1.1-.6-2-1.7-2-2.5s-1-2.1-2.2-2.9c-1.4-1-1.7-1.6-.8-1.6.9 0 .6-.8-1-2.5-2.1-2.3-2.2-2.5-.5-2.5 1.7 0 1.6-.2-.5-2.5-2-2.1-2.1-2.5-.6-2.5 1.3 0 1.5-.4.6-1.9-1.4-2.8-1.3-3.1 1.5-3.1 1.4 0 2.5-.5 2.5-1.1 0-.7 1.1-.9 3-.6 1.6.4 3.2.2 3.5-.4.4-.5 1.5-.7 2.6-.4 1.1.4 1.9.2 1.9-.4 0-1.4.6-1.4 3-.1zm53.8-.3c1.2-.9 1.6-.9 1.9 0 .3.8 1.4 1.1 2.9.7 1.4-.4 2.4-.2 2.4.4 0 .7 1.4.8 3.7.5 2.6-.4 3.4-.3 2.9.5s.3 1.2 2.3 1.2c3.4 0 3.6.2 2.1 3.1-.9 1.5-.7 1.9.6 1.9 1.5 0 1.4.3-.5 2.4-1.7 1.8-1.9 2.5-.9 2.9 1 .4.9.9-.6 2.1-1 .8-1.5 1.9-1.2 2.5.4.6-.2 1.6-1.3 2.2-1 .7-1.7 1.9-1.4 2.6.4.9-.3 1.6-1.6 2-1.3.3-2 1.1-1.7 1.8.3.8-.5 1.6-2 1.9-1.3.4-2.4 1-2.4 1.5s-1.4 1.2-3 1.6c-1.8.4-2.7 1.1-2.4 1.7.5.7-.6.8-3.2.3-6.4-1.1-10.3-3.2-11.6-6.1-1.2-2.5-1-2.9 3.2-6.5 2.4-2.1 8-5.9 12.5-8.4 4.4-2.5 7.3-4.5 6.5-4.5-2.4 0-15.9 6.8-21.4 10.7l-5 3.6-2.3-2.8c-1.9-2.1-2.3-3.4-1.8-5.9 1-4.6 3.9-9.1 5.9-9.1 1 0 2.2-.8 2.7-1.8.7-1.1 1.7-1.6 2.9-1.2 1 .3 2.1.1 2.5-.5.3-.6 1.1-.8 1.6-.5.5.4 1.7.2 2.6-.4 1.1-.6 2.2-.6 2.7-.1.6.6 1.5.5 2.4-.3z"/></svg>